<svg xmlns="http://www.w3.org/2000/svg" viewBox="0 0 1200 630" width="1200" height="630">
  <!-- Background -->
  <rect width="1200" height="630" fill="#0a0a0a"/>

  <!-- Envelope icon (scaled and centered) -->
  <g transform="translate(520, 160) scale(2.5)">
    <!-- Envelope body -->
    <path d="M9 14 L55 14" fill="none" stroke="#a3a3a3" stroke-width="2.5" stroke-linecap="round"/>
    <path d="M6 17 L6 47" fill="none" stroke="#a3a3a3" stroke-width="2.5" stroke-linecap="round"/>
    <path d="M58 17 L58 47" fill="none" stroke="#a3a3a3" stroke-width="2.5" stroke-linecap="round"/>
    <path d="M9 50 L55 50" fill="none" stroke="#a3a3a3" stroke-width="2.5" stroke-linecap="round"/>
    <path d="M6 47 Q6 50 9 50" fill="none" stroke="#a3a3a3" stroke-width="2.5"/>
    <path d="M55 50 Q58 50 58 47" fill="none" stroke="#a3a3a3" stroke-width="2.5"/>
    <path d="M6 17 Q6 14 9 14" fill="none" stroke="#a3a3a3" stroke-width="2.5"/>
    <path d="M55 14 Q58 14 58 17" fill="none" stroke="#a3a3a3" stroke-width="2.5"/>
    <!-- Envelope flap -->
    <path d="M6 16 L26 28" fill="none" stroke="#a3a3a3" stroke-width="2.5" stroke-linecap="round"/>
    <path d="M58 16 L38 28" fill="none" stroke="#a3a3a3" stroke-width="2.5" stroke-linecap="round"/>
    <!-- Circle (seal) -->
    <circle cx="32" cy="32" r="6" fill="none" stroke="#a3a3a3" stroke-width="2.5"/>
  </g>

  <!-- Title text -->
  <text x="600" y="420" font-family="system-ui, -apple-system, sans-serif" font-size="48" font-weight="600" fill="#f5f5f5" text-anchor="middle">
    In The Event Of My Death
  </text>

  <!-- Subtitle -->
  <text x="600" y="480" font-family="system-ui, -apple-system, sans-serif" font-size="24" fill="#a3a3a3" text-anchor="middle">
    Time-locked secrets with zero-knowledge encryption
  </text>
</svg>
